<svg xmlns="http://www.w3.org/2000/svg" width="14" height="16" viewBox="0 0 14 16">
                                       <g>
                                          <g>
                                             <g>
                                                <path
                                                   d="M11.2 13.546a1.4 1.4 0 0 1-1.4 1.4H4.2a1.4 1.4 0 0 1-1.4-1.4V2.803h8.4zM13.533 1.87H.467a.467.467 0 1 0 0 .933h1.4v10.734A2.333 2.333 0 0 0 4.2 15.87h5.6a2.333 2.333 0 0 0 2.333-2.333V2.803h1.4a.467.467 0 1 0 0-.933z">
                                                </path>
                                             </g>
                                             <g>
                                                <path d="M5.137.933H8.87a.467.467 0 1 0 0-.933H5.137a.467.467 0 1 0 0 .933z"></path>
                                             </g>
                                             <g>
                                                <path d="M5.597 12.133a.467.467 0 0 0 .466-.466v-5.6a.467.467 0 1 0-.933 0v5.6c0 .257.209.466.467.466z">
                                                </path>
                                             </g>
                                             <g>
                                                <path d="M8.397 12.133a.467.467 0 0 0 .466-.466v-5.6a.467.467 0 1 0-.933 0v5.6c0 .257.209.466.467.466z">
                                                </path>
                                             </g>
                                          </g>
                                       </g>
                                    </svg>